<?xml version="1.0" encoding="UTF-8"?> <svg xmlns="http://www.w3.org/2000/svg" id="Ebene_2" data-name="Ebene 2" viewBox="0 0 145.47 26.36"><defs><style> .cls-1 { fill: #95c11f; } .cls-2 { fill: #0c2b4a; } </style></defs><g id="SLIDE_1" data-name="SLIDE 1"><g><path class="cls-1" d="M20.14,1.33v-.54H.68v4.41h11.5c-.31.36-.59.74-.82,1.15L0,25.36v.53h20.14v-4.41H7.96c.31-.36.59-.74.82-1.15L20.14,1.33Z"></path><path class="cls-1" d="M29.21,21.37v-6.06h9.47v-4.38h-9.47v-5.63h9.64V.79h-14.64v25.1h14.72v-4.52h-9.72Z"></path><path class="cls-1" d="M55,15.63c1.88-.4,3.35-1.22,4.41-2.44,1.06-1.22,1.6-2.82,1.6-4.81,0-2.46-.8-4.34-2.41-5.65-1.61-1.31-3.81-1.95-6.62-1.95h-8.07v25.1h5v-9.79h.93c.31.72.63,1.32.97,1.82l5.32,7.96h5.89l-7-10.26ZM51.68,11.58h-2.79v-6.28h2.79c1.36,0,2.4.27,3.14.81.74.53,1.11,1.31,1.11,2.31s-.37,1.81-1.11,2.35c-.74.54-1.79.8-3.14.8Z"></path><path class="cls-1" d="M74.17,12.06c-4.21,4.5-4.65,9.89-4.65,11.98.86.61,1.81,1.1,2.83,1.5h0c-.04-2.03.2-5.02,1.52-8.31,2.36-5.85,6.69-8.95,8.42-10.07-1.93.56-5.27,1.85-8.13,4.9ZM82.58,1.51c-1.67-.79-3.51-1.19-5.51-1.19-1.86,0-3.58.34-5.16,1.02s-2.96,1.62-4.14,2.81c-1.17,1.2-2.09,2.59-2.75,4.16-.65,1.58-.98,3.27-.98,5.06s.33,3.47.98,5.04c.6,1.43,1.42,2.71,2.46,3.83-1.1-2.07-2.04-5.03-1-8.48,3.36-11.2,12.65-7.89,16.11-12.25h0ZM89.05,8.32c-.65-1.57-1.56-2.96-2.73-4.16-.51-.53-1.07-1-1.66-1.42,1.41,2.88,2.34,6.45,1.54,10.35-1.71,8.29-8.35,11.99-11.8,13.02.86.16,1.74.25,2.67.25,1.86,0,3.57-.33,5.14-1,1.57-.67,2.94-1.6,4.11-2.8,1.17-1.2,2.07-2.58,2.73-4.14.66-1.57.99-3.25.99-5.04s-.33-3.47-.99-5.06Z"></path><path class="cls-2" d="M107.26,7.24l-3.4,9.5c-.19.5-.36,1.02-.5,1.56-.14.53-.27,1.07-.39,1.6-.21-1.06-.51-2.1-.89-3.16l-5.72-15.96h-5.78l9.96,25.1h4.82l7.35-18.65h-5.45Z"></path><path class="cls-2" d="M116.87,7.24v18.65h4.82V7.24h-4.82ZM121.33.85c-.54-.56-1.24-.85-2.07-.85s-1.5.28-2.06.85c-.56.56-.84,1.22-.84,1.99s.27,1.46.84,2.02c.56.56,1.24.84,2.06.84s1.52-.28,2.07-.82c.55-.55.83-1.23.83-2.04,0-.77-.28-1.43-.83-1.99Z"></path><path class="cls-2" d="M140.69,7.24v2.94c-.5-1-1.2-1.81-2.11-2.42-.9-.61-2.16-.92-3.78-.92-1.28,0-2.48.26-3.59.77-1.11.52-2.07,1.22-2.91,2.12-.84.9-1.49,1.94-1.96,3.13-.48,1.18-.72,2.44-.72,3.78,0,1.79.42,3.42,1.23,4.89.82,1.47,1.93,2.64,3.32,3.52,1.39.87,2.94,1.3,4.63,1.3s2.96-.32,3.87-.97c.92-.65,1.62-1.49,2.12-2.54v3.05h4.68V7.24h-4.78ZM140.15,19.29c-.43.82-1.04,1.47-1.8,1.96-.77.49-1.7.73-2.77.73s-1.93-.25-2.7-.75c-.77-.5-1.38-1.17-1.8-1.99-.43-.82-.64-1.7-.64-2.64,0-.98.21-1.88.64-2.69.43-.81,1.03-1.46,1.8-1.96.77-.48,1.67-.73,2.7-.73s2,.25,2.77.75c.77.5,1.38,1.16,1.8,1.97.43.82.64,1.72.64,2.7s-.21,1.84-.64,2.65Z"></path></g></g></svg> 